<svg width="18.000000" height="18.000000" viewBox="0 0 18 18" fill="none" xmlns="http://www.w3.org/2000/svg" xmlns:xlink="http://www.w3.org/1999/xlink">
	<desc>
			Created with Pixso.
	</desc>
	<defs>
		<linearGradient x1="0.720005" y1="0.839998" x2="9.000002" y2="17.999996" id="paint_linear_77_2560_0" gradientUnits="userSpaceOnUse">
			<stop stop-color="#8BF9D5"/>
			<stop offset="1.000000" stop-color="#4EDAAC"/>
		</linearGradient>
	</defs>
	<path id="Star 1" d="M7.85 0.79L6.46 1.76C6.23 1.93 5.95 2.04 5.67 2.09L4 2.39C3.18 2.53 2.53 3.18 2.39 4L2.09 5.67C2.04 5.95 1.92 6.22 1.76 6.46L0.79 7.85C0.31 8.54 0.31 9.45 0.79 10.14L1.76 11.53C1.92 11.77 2.04 12.04 2.09 12.32L2.39 13.99C2.53 14.81 3.18 15.46 4 15.6L5.67 15.9C5.95 15.95 6.23 16.06 6.46 16.23L7.85 17.2C8.54 17.68 9.45 17.68 10.14 17.2L11.53 16.23C11.76 16.06 12.04 15.95 12.32 15.9L13.99 15.6C14.81 15.46 15.46 14.81 15.6 13.99L15.9 12.32C15.95 12.04 16.07 11.77 16.23 11.53L17.2 10.14C17.68 9.45 17.68 8.54 17.2 7.85L16.23 6.46C16.07 6.22 15.95 5.95 15.9 5.67L15.6 4C15.46 3.18 14.81 2.53 13.99 2.39L12.32 2.09C12.04 2.04 11.76 1.93 11.53 1.76L10.14 0.79C9.45 0.31 8.54 0.31 7.85 0.79Z" fill="url(#paint_linear_77_2560_0)" fill-opacity="1.000000" fill-rule="evenodd"/>
	<path id="Vector" d="M12.69 7.48L8.55 11.62C8.24 11.93 7.74 11.93 7.43 11.62L5.3 9.48C4.99 9.18 4.99 8.68 5.3 8.37C5.6 8.06 6.1 8.06 6.41 8.37L7.99 9.96L11.58 6.37C11.89 6.06 12.38 6.06 12.69 6.37C13 6.67 13 7.17 12.69 7.48Z" fill="#FFFFFF" fill-opacity="1.000000" fill-rule="nonzero"/>
</svg>
