<svg width="1175.000000" height="112.834961" viewBox="0 0 1175 112.835" fill="none" xmlns="http://www.w3.org/2000/svg" xmlns:xlink="http://www.w3.org/1999/xlink">
	<desc>
			Created with Pixso.
	</desc>
	<defs>
		<filter id="filter_77_2435_dd" x="0.000000" y="34.456543" width="633.000000" height="70.773438" filterUnits="userSpaceOnUse" color-interpolation-filters="sRGB">
			<feFlood flood-opacity="0" result="BackgroundImageFix"/>
			<feColorMatrix in="SourceAlpha" type="matrix" values="0 0 0 0 0 0 0 0 0 0 0 0 0 0 0 0 0 0 127 0" result="hardAlpha"/>
			<feOffset dx="1" dy="5"/>
			<feGaussianBlur stdDeviation="10"/>
			<feComposite in2="hardAlpha" operator="out" k2="-1" k3="1"/>
			<feColorMatrix type="matrix" values="0 0 0 0 0.32549 0 0 0 0 0.84314 0 0 0 0 0.67059 0 0 0 0.5 0"/>
			<feBlend mode="normal" in2="BackgroundImageFix" result="effect_dropShadow_1"/>
			<feBlend mode="normal" in="SourceGraphic" in2="effect_dropShadow_1" result="shape"/>
		</filter>
		<filter id="filter_77_2436_dd" x="564.078125" y="25.912598" width="86.921875" height="86.922363" filterUnits="userSpaceOnUse" color-interpolation-filters="sRGB">
			<feFlood flood-opacity="0" result="BackgroundImageFix"/>
			<feColorMatrix in="SourceAlpha" type="matrix" values="0 0 0 0 0 0 0 0 0 0 0 0 0 0 0 0 0 0 127 0" result="hardAlpha"/>
			<feOffset dx="1" dy="5"/>
			<feGaussianBlur stdDeviation="10"/>
			<feComposite in2="hardAlpha" operator="out" k2="-1" k3="1"/>
			<feColorMatrix type="matrix" values="0 0 0 0 0.32549 0 0 0 0 0.84314 0 0 0 0 0.67059 0 0 0 0.5 0"/>
			<feBlend mode="normal" in2="BackgroundImageFix" result="effect_dropShadow_1"/>
			<feBlend mode="normal" in="SourceGraphic" in2="effect_dropShadow_1" result="shape"/>
		</filter>
		<linearGradient x1="51.919979" y1="59.959229" x2="315.499939" y2="70.229950" id="paint_linear_77_2435_0" gradientUnits="userSpaceOnUse">
			<stop stop-color="#85FED6"/>
			<stop offset="1.000000" stop-color="#4EDAAC"/>
		</linearGradient>
		<linearGradient x1="596.915039" y1="54.888966" x2="606.539246" y2="74.834808" id="paint_linear_77_2436_0" gradientUnits="userSpaceOnUse">
			<stop stop-color="#85FED6"/>
			<stop offset="1.000000" stop-color="#4EDAAC"/>
		</linearGradient>
	</defs>
	<rect id="Rectangle 8" x="29.000000" y="59.457520" rx="5.386238" width="1146.000000" height="10.772476" fill="#F7F7F7" fill-opacity="1.000000"/>
	<g opacity="0.100000">
		<line id="Line 8" x1="602.500000" y1="59.460449" x2="602.500000" y2="70.236816" stroke="#011212" stroke-opacity="1.000000" stroke-width="1.000000"/>
	</g>
	<g opacity="0.100000">
		<line id="Line 9" x1="793.500000" y1="59.463379" x2="793.500000" y2="70.239746" stroke="#011212" stroke-opacity="1.000000" stroke-width="1.000000"/>
	</g>
	<g opacity="0.100000">
		<line id="Line 10" x1="984.500000" y1="59.466309" x2="984.500000" y2="70.242676" stroke="#011212" stroke-opacity="1.000000" stroke-width="1.000000"/>
	</g>
	<g filter="url(#filter_77_2435_dd)" style="mix-blend-mode:normal">
		<rect id="Rectangle 9" x="29.000000" y="59.456543" rx="5.386719" width="573.000000" height="10.773438" fill="url(#paint_linear_77_2435_0)" fill-opacity="1.000000"/>
	</g>
	<g filter="url(#filter_77_2436_dd)" style="mix-blend-mode:normal">
		<circle id="Ellipse 12" cx="606.539062" cy="64.373535" r="10.461106" fill="url(#paint_linear_77_2436_0)" fill-opacity="1.000000"/>
		<circle id="Ellipse 12" cx="606.539062" cy="64.373535" r="11.961106" stroke="#FFFFFF" stroke-opacity="1.000000" stroke-width="3.000000"/>
	</g>
	<g opacity="0.900000">
		<rect id="Rectangle 10" x="565.214844" rx="3.000000" width="82.649933" height="35.034561" fill="#282323" fill-opacity="1.000000"/>
		<path id="Polygon 1" d="M606.53 45.59L613.22 34.02L599.85 34.02L606.53 45.59Z" fill="#282323" fill-opacity="1.000000" fill-rule="evenodd"/>
	</g>
	<path id="$130" d="M596.69 20.94Q596.78 20.56 596.78 20.15Q596.78 19.03 596.29 18.39Q595.97 17.97 595.55 17.7Q595.33 17.56 595.08 17.45Q594.37 17.15 593.23 16.88L593.23 13.21Q593.72 13.34 594.05 13.64Q594.12 13.71 594.18 13.78Q594.39 14.03 594.5 14.31Q594.57 14.51 594.59 14.72L596.67 14.72Q596.57 13.64 596.01 12.91Q595.85 12.69 595.64 12.51Q595.62 12.49 595.61 12.48Q594.71 11.69 593.23 11.56L593.23 10.19L592.12 10.19L592.12 11.56Q590.73 11.69 589.8 12.42Q589.66 12.53 589.54 12.64Q589.12 13.04 588.87 13.53Q588.56 14.18 588.56 14.98Q588.56 16.1 589.05 16.75Q589.41 17.2 589.87 17.48Q590.06 17.6 590.27 17.69Q590.98 17.99 592.12 18.27L592.12 22.02Q591.47 21.91 591.11 21.52Q591.08 21.5 591.05 21.47Q591.01 21.41 590.96 21.35Q590.67 20.95 590.63 20.37L588.56 20.37Q588.56 21.2 588.91 21.84Q589.15 22.27 589.54 22.61Q590.53 23.46 592.12 23.62L592.12 24.99L593.23 24.99L593.23 23.62Q594.33 23.51 595.14 23Q595.9 22.52 596.31 21.84Q596.34 21.79 596.37 21.74Q596.58 21.36 596.69 20.94ZM606.1 12.39Q605.59 13.13 605.52 14.18L607.41 14.18Q607.46 13.81 607.63 13.5Q607.79 13.21 608.04 12.98Q608.05 12.97 608.07 12.95Q608.59 12.5 609.52 12.5Q610.48 12.5 611.01 12.98Q611.01 12.98 611.01 12.98Q611.17 13.13 611.28 13.3Q611.54 13.71 611.54 14.28Q611.54 14.87 611.27 15.26Q611.09 15.51 610.81 15.68Q610.09 16.12 608.72 16.13L608.26 16.13L608.26 17.73L608.7 17.73Q610.26 17.73 611.02 18.23Q611.18 18.34 611.31 18.49Q611.78 19 611.78 19.93Q611.78 20.56 611.5 21.03Q611.38 21.23 611.22 21.4Q611.16 21.45 611.1 21.51Q610.55 21.96 609.62 21.96Q608.64 21.96 608.03 21.49Q607.97 21.45 607.92 21.4Q607.68 21.18 607.52 20.91Q607.26 20.48 607.22 19.93L605.35 19.93Q605.41 21.21 606.05 22.06Q606.29 22.38 606.61 22.64Q606.71 22.72 606.82 22.79Q607.95 23.58 609.64 23.58Q610.89 23.58 611.79 23.13Q612.54 22.76 612.98 22.16Q613.07 22.03 613.15 21.9Q613.23 21.77 613.29 21.63Q613.61 20.95 613.61 20.11Q613.61 18.86 613.05 18.05Q612.85 17.77 612.6 17.54Q612.14 17.13 611.49 16.93L611.49 16.86Q611.62 16.82 611.75 16.76Q612.37 16.48 612.83 15.86Q612.95 15.71 613.04 15.54Q613.39 14.9 613.39 14.06Q613.39 13.37 613.14 12.78Q613.06 12.59 612.95 12.41Q612.89 12.31 612.82 12.22Q612.39 11.62 611.64 11.26Q610.77 10.83 609.59 10.83Q607.99 10.83 606.91 11.58Q606.82 11.64 606.73 11.71Q606.36 12.01 606.1 12.39ZM616.65 12.56Q615.65 14.21 615.65 17.15Q615.65 20.13 616.65 21.81Q616.93 22.28 617.32 22.62Q618.33 23.48 620.07 23.48Q621.81 23.48 622.82 22.62Q623.22 22.28 623.5 21.81Q624.49 20.13 624.49 17.15Q624.49 14.21 623.5 12.56Q623.22 12.1 622.84 11.77Q621.83 10.9 620.07 10.9Q618.31 10.9 617.3 11.77Q616.92 12.1 616.65 12.56ZM599.35 11.12L599.35 12.89L600.93 12.89L600.93 23.51L602.88 23.51L602.88 11.12L599.35 11.12ZM622.41 14.83Q622.59 15.78 622.59 17.15Q622.59 18.58 622.42 19.55Q622.25 20.52 621.7 21.12Q621.64 21.18 621.57 21.24Q621.03 21.71 620.07 21.71Q619.12 21.71 618.57 21.24Q618.51 21.18 618.45 21.12Q617.89 20.52 617.72 19.55Q617.56 18.58 617.56 17.15Q617.56 15.78 617.74 14.83Q617.92 13.88 618.46 13.27Q618.53 13.2 618.6 13.13Q619.14 12.67 620.07 12.67Q621.01 12.67 621.54 13.13Q621.62 13.2 621.69 13.27Q622.23 13.88 622.41 14.83ZM590.79 15.8Q590.53 15.43 590.53 14.88Q590.53 14.26 590.82 13.86Q590.88 13.77 590.96 13.69Q591.02 13.62 591.09 13.57Q591.5 13.23 592.12 13.16L592.12 16.59Q591.36 16.36 590.94 15.97Q590.86 15.89 590.79 15.8ZM594.25 21.57Q593.85 21.92 593.23 22.02L593.23 18.57Q593.99 18.8 594.41 19.19Q594.51 19.28 594.58 19.38Q594.83 19.73 594.83 20.25Q594.83 20.65 594.68 20.98Q594.57 21.21 594.4 21.41Q594.33 21.49 594.25 21.57Z" fill="#FFFFFF" fill-opacity="1.000000" fill-rule="evenodd"/>
</svg>
